<svg xmlns="http://www.w3.org/2000/svg" viewBox="1100 1100 7800 7800" role="img" aria-label="Skyline Exchange logo">
  <path fill="#00E1D3" fill-rule="evenodd" clip-rule="evenodd" d="M 4881.5,1129.5 C 4962.83,1129.33 5044.17,1129.5 5125.5,1130C 5705.56,1148.76 6253.89,1289.76 6770.5,1553C 7180.23,1762.94 7541.73,2037.44 7855,2376.5C 7900,2427.5 7945,2478.5 7990,2529.5C 8086.85,2649.01 8177.52,2773.01 8262,2901.5C 8516.04,3296.76 8693.37,3724.76 8794,4185.5C 8819.21,4305.3 8839.21,4425.96 8854,4547.5C 8861,4615.5 8868,4683.5 8875,4751.5C 8880.66,4915.82 8880.99,5080.15 8876,5244.5C 8852.59,5599.24 8782.92,5944.57 8667,6280.5C 8553.17,6599.5 8402.5,6898.83 8215,7178.5C 8162.47,7253.56 8108.47,7327.56 8053,7400.5C 7944.97,7535.9 7828.81,7664.73 7704.5,7787C 7605.23,7883.63 7501.23,7974.3 7392.5,8059C 7316.9,8116.13 7240.23,8171.8 7162.5,8226C 6898.65,8400.6 6617.31,8542.6 6318.5,8652C 6000.83,8765.83 5673.83,8837.5 5337.5,8867C 5300.87,8870.44 5264.2,8873.44 5227.5,8876C 5073.83,8880.67 4920.17,8880.67 4766.5,8876C 4739.33,8875.08 4712.33,8872.41 4685.5,8868C 4132.91,8822.79 3614.25,8666.46 3129.5,8399C 2829.93,8232.15 2556.26,8029.82 2308.5,7792C 2188.28,7673.82 2075.45,7549.65 1970,7419.5C 1909.79,7340.62 1851.12,7260.62 1794,7179.5C 1495.42,6735.8 1295.42,6250.13 1194,5722.5C 1177.07,5631.66 1163.4,5540.32 1153,5448.5C 1147.69,5393.46 1142.03,5338.46 1136,5283.5C 1131.8,5234.93 1129.8,5186.26 1130,5137.5C 1110.62,4542.74 1220.95,3973.41 1461,3429.5C 1556.79,3214.49 1670.46,3010.49 1802,2817.5C 1855.78,2741.61 1910.78,2666.61 1967,2592.5C 2082.74,2449.06 2207.57,2313.23 2341.5,2185C 2727.14,1823.29 3169.47,1549.63 3668.5,1364C 4060.49,1221.3 4464.83,1143.13 4881.5,1129.5 Z M 5060.5,2208.5 C 5131.17,2208.33 5201.83,2208.5 5272.5,2209C 5323.94,2209.61 5375.28,2212.27 5426.5,2217C 5508.59,2224.74 5590.59,2233.41 5672.5,2243C 5922.38,2276.47 6167.72,2330.47 6408.5,2405C 6520.39,2439.79 6631.39,2477.12 6741.5,2517C 6816.7,2544.26 6890.03,2575.93 6961.5,2612C 7107.53,2691.13 7246.87,2780.13 7379.5,2879C 7609.58,3057.71 7803.75,3268.54 7962,3511.5C 8135.13,3786.09 8256.79,4082.43 8327,4400.5C 8327.67,4412.5 8327.67,4424.5 8327,4436.5C 8297.58,4392.01 8268.92,4347.01 8241,4301.5C 8197.49,4239.66 8152.83,4178.66 8107,4118.5C 8086.38,4092.88 8065.38,4067.54 8044,4042.5C 7988.11,3984.61 7930.94,3928.11 7872.5,3873C 7821.5,3829.33 7770.5,3785.67 7719.5,3742C 7656.05,3688.87 7590.05,3639.21 7521.5,3593C 7067.51,3285.78 6571.17,3074.78 6032.5,2960C 5744.26,2899.71 5452.93,2871.38 5158.5,2875C 4889.7,2881.39 4624.7,2916.39 4363.5,2980C 4215.88,3015.98 4075.88,3070.98 3943.5,3145C 3855.54,3196.63 3772.88,3255.63 3695.5,3322C 3590.61,3416.76 3505.11,3526.26 3439,3650.5C 3363.97,3795.61 3326.14,3949.94 3325.5,4113.5C 3325.55,4160.82 3325.72,4208.15 3326,4255.5C 3324.57,4504.55 3398.91,4727.55 3549,4924.5C 3692.75,5108.82 3875.58,5238.98 4097.5,5315C 4269.31,5374.76 4445.97,5411.1 4627.5,5424C 4670.12,5428.85 4712.78,5433.18 4755.5,5437C 4785.64,5439.41 4815.81,5439.91 4846,5438.5C 4890.82,5441.93 4935.66,5445.27 4980.5,5448.5C 4984.66,5448.14 4988.83,5447.81 4993,5447.5C 5098.17,5448.15 5203.33,5449.32 5308.5,5451C 5377.71,5457.22 5447.04,5459.05 5516.5,5456.5C 5611.59,5452.9 5703.25,5468.74 5791.5,5504C 5923.4,5560.65 5984.23,5660.82 5974,5804.5C 5963.34,5872.43 5932.84,5929.6 5882.5,5976C 5846.66,6008.12 5806.32,6033.45 5761.5,6052C 5697.72,6077.78 5631.72,6095.45 5563.5,6105C 5464.85,6117.8 5365.85,6126.8 5266.5,6132C 5244.51,6132.87 5222.51,6133.54 5200.5,6134C 5081.5,6134.67 4962.5,6134.67 4843.5,6134C 4571.42,6125.99 4305.42,6081.65 4045.5,6001C 3809.09,5926.13 3590.42,5817.46 3389.5,5675C 3229.93,5556.1 3092.76,5415.6 2978,5253.5C 2848.18,5070.31 2751.51,4870.31 2688,4653.5C 2662.65,4563.73 2645.65,4472.39 2637,4379.5C 2608.61,4078.49 2650.95,3787.82 2764,3507.5C 2840.93,3324.48 2944.27,3158.81 3074,3010.5C 3125.14,2957.03 3177.3,2904.53 3230.5,2853C 3355.54,2740.66 3492.2,2644.66 3640.5,2565C 3933.24,2409.31 4243.58,2305.31 4571.5,2253C 4697.19,2232.96 4823.53,2218.63 4950.5,2210C 4987.34,2209.83 5024,2209.33 5060.5,2208.5 Z M 4946.5,3818.5 C 5312.37,3803.29 5673.37,3838.12 6029.5,3923C 6192.05,3962.18 6350.72,4013.18 6505.5,4076C 6672.2,4146.64 6828.2,4234.64 6973.5,4340C 7103.56,4438.05 7220.06,4550.55 7323,4677.5C 7532.23,4947.72 7648.23,5254.38 7671,5597.5C 7672.44,5670.5 7672.44,5743.5 7671,5816.5C 7670.41,5837.19 7669.41,5857.85 7668,5878.5C 7657.49,5959.39 7645.49,6040.06 7632,6120.5C 7574.49,6432.43 7445.82,6710.1 7246,6953.5C 7187.34,7025.16 7122.84,7091.33 7052.5,7152C 6931.52,7253.52 6801.52,7342.19 6662.5,7418C 6498.14,7502.68 6326.48,7568.68 6147.5,7616C 6005.55,7653.66 5861.88,7682.99 5716.5,7704C 5632.26,7715.73 5547.93,7726.73 5463.5,7737C 5431.88,7740.48 5400.21,7743.48 5368.5,7746C 5292.83,7751.29 5217.16,7756.62 5141.5,7762C 5047.5,7763.31 4953.5,7763.64 4859.5,7763C 4564.98,7754.64 4273.98,7718.31 3986.5,7654C 3598.88,7566.7 3232.55,7425.37 2887.5,7230C 2765.34,7157.43 2649.68,7075.76 2540.5,6985C 2408.87,6872.38 2289.37,6748.55 2182,6613.5C 2004.84,6386.28 1868.84,6135.28 1774,5860.5C 1690.13,5616.01 1636.46,5365.01 1613,5107.5C 1598.52,4961.77 1594.86,4815.77 1602,4669.5C 1605.48,4592.15 1616.15,4515.82 1634,4440.5C 1636.48,4451.01 1638.15,4461.67 1639,4472.5C 1640.64,4497.48 1641.97,4522.48 1643,4547.5C 1656.71,4658.72 1678.38,4768.39 1708,4876.5C 1777.38,5129.77 1881.38,5367.43 2020,5589.5C 2121.67,5753.88 2238.67,5906.88 2371,6048.5C 2484.21,6169.41 2605.05,6281.25 2733.5,6384C 2856.13,6478.84 2984.46,6565.5 3118.5,6644C 3240.76,6710.29 3366.42,6769.29 3495.5,6821C 3924.11,6994.06 4369.44,7092.06 4831.5,7115C 4898.67,7115.3 4965.84,7115.8 5033,7116.5C 5216.42,7114.2 5398.92,7100.03 5580.5,7074C 5772.08,7046.27 5958.08,6997.61 6138.5,6928C 6245.28,6885.61 6347.28,6834.28 6444.5,6774C 6612.47,6664.38 6742.97,6520.88 6836,6343.5C 6915.16,6189.88 6962.16,6026.88 6977,5854.5C 6994.83,5653.15 6966.16,5458.81 6891,5271.5C 6838.19,5142.4 6761.35,5029.9 6660.5,4934C 6540.94,4822.61 6404.94,4735.95 6252.5,4674C 6166.57,4638.77 6078.24,4611.1 5987.5,4591C 5948.95,4579.28 5909.95,4569.28 5870.5,4561C 5779.49,4550.42 5688.49,4539.75 5597.5,4529C 5545.86,4524.24 5494.2,4519.91 5442.5,4516C 5415.16,4514.4 5387.83,4512.73 5360.5,4511C 5340.55,4508.44 5320.55,4506.44 5300.5,4505C 5251.17,4503.96 5201.84,4502.96 5152.5,4502C 5112.92,4498.16 5073.26,4495.83 5033.5,4495C 4960.16,4494.89 4886.83,4494.23 4813.5,4493C 4767.64,4490.71 4721.97,4486.38 4676.5,4480C 4613.47,4472.74 4552.8,4456.74 4494.5,4432C 4351.35,4365.2 4295.85,4254.04 4328,4098.5C 4349.59,4015.06 4398.09,3952.89 4473.5,3912C 4536.57,3879.97 4602.91,3857.31 4672.5,3844C 4694.74,3839.46 4717.07,3835.46 4739.5,3832C 4808.6,3826.49 4877.6,3821.99 4946.5,3818.5 Z"/>
</svg>
